<?xml version="1.0" standalone="no"?>
<!DOCTYPE svg PUBLIC "-//W3C//DTD SVG 20010904//EN"
 "http://www.w3.org/TR/2001/REC-SVG-20010904/DTD/svg10.dtd">
<svg version="1.0" xmlns="http://www.w3.org/2000/svg"
 width="4500.000000pt" height="4500.000000pt" viewBox="0 0 4500.000000 4500.000000"
 preserveAspectRatio="xMidYMid meet">
<metadata>
Created by potrace 1.11, written by Peter Selinger 2001-2013
</metadata>
<g transform="translate(0.000000,4500.000000) scale(0.100000,-0.100000)"
fill="#000000" stroke="none">
<path d="M22058 37424 c-2 -1 -82 -5 -178 -9 -96 -3 -204 -8 -240 -10 -36 -3
-101 -7 -145 -10 -156 -11 -221 -16 -265 -20 -25 -2 -74 -7 -110 -10 -36 -3
-81 -8 -100 -10 -19 -2 -69 -7 -110 -11 -41 -3 -83 -8 -92 -9 -9 -2 -48 -7
-85 -10 -37 -4 -75 -9 -83 -10 -8 -1 -44 -6 -80 -10 -36 -4 -72 -9 -80 -10
-37 -7 -128 -20 -200 -30 -25 -3 -74 -11 -110 -16 -36 -6 -78 -13 -95 -15 -25
-4 -114 -20 -280 -49 -16 -3 -64 -12 -105 -20 -41 -8 -86 -17 -100 -19 -220
-40 -636 -136 -913 -211 -54 -15 -106 -28 -115 -30 -9 -2 -42 -11 -72 -20 -30
-9 -79 -22 -108 -30 -366 -101 -1099 -352 -1447 -497 -27 -11 -59 -24 -70 -29
-91 -37 -370 -156 -410 -174 -27 -13 -122 -56 -210 -96 -420 -191 -908 -450
-1434 -760 -304 -179 -845 -543 -1181 -793 -41 -30 -84 -62 -95 -70 -108 -80
-475 -370 -556 -440 -19 -17 -49 -42 -65 -55 -41 -35 -277 -238 -308 -266
-432 -390 -856 -812 -1177 -1169 -24 -28 -51 -57 -59 -66 -124 -134 -363 -421
-673 -810 -157 -197 -544 -745 -724 -1025 -83 -130 -243 -387 -243 -391 0 -2
-15 -27 -34 -56 -40 -64 -214 -367 -281 -493 -122 -226 -153 -285 -264 -510
-172 -347 -229 -469 -346 -745 -31 -74 -65 -153 -75 -175 -16 -35 -83 -204
-155 -390 -13 -33 -47 -125 -75 -205 -29 -80 -56 -154 -60 -165 -24 -58 -202
-607 -215 -663 -3 -9 -16 -55 -30 -102 -14 -47 -35 -116 -45 -155 -42 -157
-91 -341 -94 -360 -3 -11 -12 -48 -21 -82 -9 -35 -18 -72 -20 -84 -2 -11 -7
-29 -10 -39 -3 -10 -8 -27 -10 -37 -2 -10 -13 -61 -25 -113 -30 -134 -68 -317
-95 -450 -3 -14 -8 -41 -11 -60 -3 -19 -7 -42 -9 -50 -2 -8 -7 -31 -10 -50 -3
-19 -10 -62 -16 -95 -6 -33 -13 -73 -16 -90 -2 -16 -13 -82 -23 -145 -11 -63
-22 -137 -26 -165 -3 -27 -8 -59 -10 -70 -4 -19 -10 -65 -20 -140 -3 -22 -7
-51 -9 -65 -2 -14 -6 -52 -10 -85 -3 -33 -7 -71 -10 -85 -2 -14 -7 -52 -10
-85 -8 -76 -13 -125 -20 -195 -3 -30 -8 -75 -10 -100 -2 -25 -7 -79 -10 -120
-10 -119 -13 -158 -21 -285 -3 -66 -8 -140 -9 -165 -33 -499 -24 -1325 20
-1910 2 -25 6 -85 10 -135 4 -49 8 -101 10 -115 2 -14 7 -59 10 -100 3 -41 7
-91 10 -110 2 -19 7 -60 10 -90 3 -30 10 -89 16 -130 5 -41 12 -100 14 -130 3
-30 8 -62 10 -70 2 -8 7 -38 10 -66 3 -28 8 -61 10 -75 3 -13 7 -44 10 -69 7
-59 53 -336 70 -425 7 -38 16 -86 19 -105 9 -54 16 -93 21 -110 3 -8 7 -33 11
-55 3 -22 10 -60 15 -85 15 -65 70 -321 75 -348 18 -92 149 -592 209 -802 161
-560 414 -1269 613 -1721 11 -24 43 -98 72 -164 150 -342 339 -727 528 -1075
80 -149 186 -337 203 -362 11 -14 19 -28 19 -31 0 -19 309 -514 485 -777 170
-253 207 -307 389 -555 61 -82 116 -156 122 -165 7 -8 49 -62 94 -120 281
-365 601 -741 919 -1080 206 -220 623 -632 782 -774 24 -22 69 -62 99 -90 30
-28 91 -82 135 -121 43 -38 97 -86 120 -106 70 -61 343 -288 447 -370 35 -28
70 -56 78 -63 261 -214 867 -642 1250 -883 214 -135 540 -329 690 -411 36 -19
99 -54 140 -77 268 -150 818 -422 1047 -519 32 -13 87 -38 123 -54 108 -50
295 -127 500 -207 107 -42 204 -80 215 -85 34 -15 492 -175 625 -218 138 -45
287 -92 310 -97 8 -2 119 -34 245 -70 192 -55 629 -167 700 -181 11 -2 49 -10
85 -18 201 -46 480 -103 590 -120 19 -3 46 -8 60 -11 49 -10 256 -44 305 -50
28 -4 57 -8 65 -10 8 -2 38 -7 65 -11 28 -3 58 -8 69 -10 10 -2 44 -6 75 -9
31 -4 63 -8 71 -10 8 -2 42 -7 75 -10 33 -4 71 -8 85 -11 14 -2 50 -6 80 -9
53 -6 95 -10 170 -20 19 -2 71 -7 114 -10 43 -4 86 -8 96 -10 9 -2 61 -6 116
-9 54 -4 115 -9 134 -11 19 -2 85 -7 145 -10 61 -3 135 -8 165 -10 363 -28
1236 -23 1735 10 141 9 322 23 395 30 25 3 79 7 120 10 41 3 86 7 100 10 14 2
52 7 85 10 33 3 71 8 85 10 14 2 68 9 120 14 52 6 104 13 115 15 11 2 45 7 76
10 31 4 65 8 75 10 11 2 44 7 74 11 30 5 62 9 70 11 8 1 34 5 56 8 122 18 512
87 624 111 14 3 36 8 50 11 14 3 36 7 50 10 73 14 278 59 365 80 55 14 109 26
120 29 11 2 35 8 53 14 17 5 32 8 32 5 0 -3 8 0 18 5 9 5 33 12 52 15 19 3 51
10 70 16 19 6 87 24 150 41 305 81 950 284 1155 364 99 38 279 106 290 109 6
2 19 7 30 11 687 273 1231 525 1768 823 67 37 135 74 150 82 110 59 540 317
692 415 248 160 492 325 678 460 76 55 148 107 160 115 19 13 156 117 362 274
27 21 52 41 55 45 3 4 25 22 50 41 55 42 377 307 406 335 12 11 48 43 80 70
392 334 949 885 1345 1330 24 27 60 67 79 89 50 55 50 55 106 121 78 92 88
105 154 185 34 41 79 95 100 120 113 135 369 470 533 697 145 202 492 717 517
768 4 9 119 196 169 275 9 14 21 34 27 45 6 11 49 85 96 165 46 80 100 174
118 210 19 36 37 67 40 70 3 3 23 39 44 80 21 41 57 109 79 150 100 186 447
904 447 925 0 3 12 30 26 62 64 142 141 329 269 658 219 560 463 1381 610
2045 18 81 37 170 41 190 36 182 45 229 49 250 3 14 7 36 10 50 12 61 82 483
90 540 3 25 9 59 12 75 2 17 6 44 8 60 2 28 12 98 20 155 2 14 7 52 11 85 3
33 8 67 9 76 2 9 6 52 10 95 4 43 9 86 10 94 2 8 6 49 9 90 4 41 9 91 11 110
2 19 7 71 10 115 3 44 8 105 10 135 4 48 7 93 20 300 25 381 25 1298 0 1630
-2 30 -7 100 -10 155 -3 55 -8 125 -10 155 -2 30 -7 87 -10 125 -3 39 -7 88
-10 110 -2 22 -7 72 -10 110 -4 39 -8 81 -10 95 -2 14 -7 54 -10 90 -5 58 -8
84 -20 170 -2 14 -7 50 -10 80 -4 30 -11 87 -16 125 -6 39 -12 88 -15 110 -3
22 -14 93 -25 158 -10 65 -21 134 -24 155 -2 20 -7 48 -10 62 -3 14 -8 41 -11
60 -12 72 -75 406 -84 440 -5 19 -11 51 -14 71 -3 20 -10 48 -15 62 -5 14 -8
27 -5 30 2 2 0 15 -5 29 -5 14 -12 38 -15 54 -11 64 -20 99 -81 344 -70 279
-127 489 -182 669 -19 64 -39 132 -45 151 -5 19 -13 44 -18 55 -4 11 -34 98
-65 194 -115 355 -296 838 -430 1146 -218 504 -380 839 -638 1315 -227 420
-613 1039 -889 1426 -46 64 -90 126 -98 138 -29 41 -272 368 -280 376 -3 3
-21 25 -40 50 -49 65 -294 370 -315 394 -6 6 -49 56 -95 111 -132 155 -304
349 -485 545 -110 119 -597 604 -734 730 -146 135 -125 116 -231 210 -47 41
-90 80 -96 85 -184 166 -621 520 -884 716 -218 162 -265 196 -415 301 -180
125 -562 377 -650 428 -16 10 -88 53 -160 97 -112 69 -331 196 -445 260 -254
141 -357 195 -677 354 -166 82 -304 149 -306 149 -3 0 -47 20 -99 44 -172 80
-704 306 -721 306 -5 0 -27 8 -50 19 -23 10 -87 35 -142 55 -55 21 -116 44
-135 51 -214 86 -1055 351 -1268 400 -9 2 -84 22 -167 43 -82 22 -163 42 -180
46 -16 3 -41 9 -55 12 -14 3 -50 11 -80 19 -31 8 -73 17 -95 21 -22 3 -43 8
-47 11 -5 2 -16 6 -26 8 -10 2 -98 19 -195 39 -267 55 -617 117 -722 130 -22
2 -83 11 -135 20 -97 15 -148 22 -235 31 -27 3 -61 8 -75 10 -42 7 -182 23
-355 40 -33 3 -78 8 -100 10 -22 2 -74 7 -115 10 -41 3 -100 8 -130 10 -74 6
-206 15 -304 20 -45 3 -135 7 -201 11 -119 6 -1072 14 -1077 8z m1127 -678
c28 -2 104 -7 170 -10 66 -4 140 -9 165 -11 25 -3 79 -7 120 -10 41 -3 95 -8
120 -10 25 -2 79 -7 120 -10 41 -3 86 -8 100 -10 33 -5 112 -14 178 -20 29 -3
63 -7 75 -10 12 -3 45 -7 72 -9 28 -3 82 -10 120 -15 39 -6 90 -13 114 -16 23
-3 55 -7 70 -10 14 -2 71 -11 126 -20 55 -8 111 -17 125 -20 56 -11 77 -14
115 -20 22 -3 47 -7 55 -10 8 -2 31 -6 50 -9 74 -11 449 -88 613 -126 296 -69
495 -120 757 -196 85 -25 162 -47 170 -49 206 -53 1080 -365 1315 -470 17 -7
109 -47 205 -88 96 -42 213 -93 260 -115 47 -22 108 -50 135 -62 67 -30 552
-272 618 -308 28 -16 84 -46 122 -67 96 -52 363 -203 400 -226 17 -10 37 -22
45 -26 17 -8 166 -99 345 -211 188 -118 662 -436 750 -504 6 -5 107 -81 225
-170 267 -201 565 -439 735 -589 17 -14 75 -66 130 -113 55 -48 107 -95 115
-104 8 -10 33 -32 55 -51 178 -150 678 -651 956 -956 95 -105 251 -283 274
-313 6 -7 19 -23 31 -35 35 -37 165 -195 273 -332 57 -71 111 -139 120 -150
23 -28 280 -371 314 -420 15 -22 57 -80 92 -130 88 -124 337 -496 380 -567 5
-10 64 -106 131 -215 67 -109 147 -243 179 -298 32 -55 71 -121 86 -148 16
-26 29 -49 29 -52 0 -3 30 -58 66 -122 69 -125 337 -656 394 -783 18 -41 48
-106 66 -145 18 -38 67 -151 109 -250 42 -99 80 -189 85 -200 62 -134 260
-674 360 -980 143 -440 344 -1188 386 -1435 3 -14 11 -56 20 -95 9 -38 18 -81
20 -95 3 -14 13 -70 24 -125 10 -55 21 -113 24 -130 12 -65 74 -453 81 -500 3
-27 8 -61 10 -75 5 -31 33 -259 40 -320 3 -25 8 -67 10 -95 3 -27 8 -66 10
-85 2 -19 7 -64 10 -100 3 -36 8 -90 11 -120 5 -56 7 -83 19 -253 11 -160 12
-183 21 -392 5 -110 9 -378 9 -595 0 -534 -17 -903 -60 -1350 -2 -25 -7 -74
-10 -110 -3 -36 -7 -76 -10 -90 -2 -14 -7 -52 -10 -85 -3 -33 -8 -71 -10 -85
-2 -14 -6 -50 -10 -80 -4 -30 -8 -66 -10 -80 -2 -14 -7 -50 -10 -80 -4 -30 -9
-62 -10 -70 -2 -8 -8 -51 -15 -95 -6 -44 -13 -91 -15 -105 -2 -14 -11 -68 -20
-120 -9 -52 -18 -108 -21 -125 -2 -16 -9 -52 -14 -80 -6 -27 -24 -120 -41
-205 -31 -156 -35 -181 -43 -222 -3 -13 -12 -54 -21 -93 -10 -38 -19 -80 -20
-92 -2 -11 -6 -30 -10 -42 -3 -11 -8 -31 -11 -43 -2 -13 -20 -86 -39 -163 -19
-77 -37 -149 -40 -160 -37 -159 -207 -733 -289 -970 -92 -269 -209 -588 -245
-670 -5 -11 -28 -67 -51 -125 -50 -124 -141 -340 -180 -425 -15 -33 -37 -82
-50 -110 -80 -178 -139 -301 -260 -540 -75 -148 -149 -292 -165 -320 -15 -27
-52 -95 -83 -150 -209 -378 -498 -843 -735 -1185 -88 -126 -367 -512 -376
-520 -4 -3 -19 -23 -36 -45 -27 -36 -277 -353 -317 -400 -130 -156 -197 -234
-299 -350 -20 -22 -49 -55 -65 -74 -186 -214 -724 -763 -963 -981 -63 -58
-122 -112 -130 -120 -9 -8 -66 -58 -126 -110 -61 -52 -112 -98 -115 -101 -4
-4 -88 -75 -295 -248 -116 -97 -544 -425 -659 -506 -16 -11 -47 -34 -70 -50
-95 -70 -183 -130 -386 -265 -118 -78 -227 -151 -242 -161 -15 -10 -29 -19
-32 -19 -2 0 -31 -17 -63 -38 -95 -64 -427 -260 -618 -367 -217 -121 -680
-359 -860 -442 -49 -23 -130 -60 -180 -83 -454 -211 -1093 -454 -1635 -624
-151 -47 -544 -161 -590 -171 -8 -2 -96 -24 -195 -49 -99 -24 -243 -59 -320
-76 -170 -38 -173 -39 -210 -45 -16 -3 -37 -8 -45 -10 -8 -2 -27 -6 -41 -9
-14 -2 -75 -14 -135 -25 -157 -31 -253 -49 -298 -56 -21 -3 -48 -7 -60 -10
-12 -2 -39 -7 -61 -10 -38 -5 -210 -31 -265 -40 -40 -6 -102 -14 -145 -19 -22
-3 -76 -10 -120 -15 -44 -6 -100 -13 -125 -15 -25 -3 -85 -10 -135 -15 -92
-10 -158 -16 -280 -26 -38 -3 -92 -8 -120 -11 -27 -2 -95 -7 -150 -10 -55 -3
-122 -7 -150 -9 -318 -25 -1200 -25 -1585 0 -36 2 -112 7 -170 10 -58 4 -121
8 -140 10 -19 2 -73 6 -120 10 -47 3 -105 8 -130 11 -25 2 -65 6 -90 9 -99 10
-158 16 -230 25 -41 5 -97 12 -125 15 -27 3 -63 8 -80 10 -16 3 -46 7 -65 9
-63 9 -254 37 -280 42 -14 2 -45 6 -70 9 -25 3 -52 8 -61 11 -10 2 -31 6 -49
9 -17 2 -43 6 -58 9 -15 3 -43 8 -62 11 -30 5 -76 14 -265 51 -11 2 -31 6 -45
9 -14 3 -36 8 -50 10 -14 3 -47 10 -75 16 -27 6 -61 12 -75 15 -14 3 -41 9
-60 14 -19 5 -49 11 -66 14 -145 25 -790 199 -1099 297 -233 74 -620 206 -670
228 -11 5 -94 37 -185 71 -251 95 -619 251 -895 380 -116 54 -572 281 -650
323 -33 18 -94 51 -135 74 -498 271 -954 556 -1445 903 -175 123 -628 466
-681 515 -6 5 -30 26 -55 45 -49 39 -218 181 -264 221 -235 205 -298 260 -340
300 -27 25 -84 77 -125 115 -92 84 -611 603 -700 700 -119 129 -146 158 -225
249 -44 50 -84 95 -90 101 -36 39 -83 95 -178 209 -60 72 -118 141 -129 154
-108 127 -466 597 -591 776 -155 221 -557 835 -557 850 0 2 -31 54 -69 117
-64 106 -198 342 -286 503 -59 108 -305 598 -359 715 -317 682 -577 1372 -776
2065 -28 97 -53 184 -55 193 -3 9 -23 87 -45 172 -45 170 -90 355 -120 495
-11 50 -27 122 -35 160 -8 39 -17 79 -19 90 -2 11 -14 70 -25 130 -12 61 -24
125 -27 144 -3 18 -8 43 -10 55 -8 40 -25 141 -35 206 -5 36 -11 72 -14 80 -2
8 -6 35 -9 60 -4 25 -8 56 -11 70 -2 14 -9 63 -15 110 -6 47 -13 96 -15 110
-2 14 -7 50 -10 80 -3 30 -8 66 -10 80 -5 33 -14 111 -20 180 -3 30 -7 66 -9
80 -3 14 -7 61 -11 105 -3 44 -8 96 -10 115 -5 38 -12 135 -21 275 -2 50 -7
110 -9 135 -26 282 -26 1348 0 1668 2 26 7 92 10 147 4 55 8 116 10 135 2 19
6 75 10 124 3 49 8 103 10 120 2 17 7 61 10 98 3 37 8 77 10 90 2 13 6 50 10
83 3 33 8 74 10 90 3 17 7 53 10 80 3 28 8 64 10 80 2 17 7 50 10 75 3 25 7
54 9 65 2 11 7 43 10 70 20 149 98 589 141 800 7 30 66 298 70 315 2 8 10 44
19 80 29 129 116 460 180 681 189 655 416 1266 728 1959 66 146 257 534 338
685 47 88 164 303 190 350 23 40 119 206 130 225 5 8 48 80 96 160 89 148 118
194 253 402 64 99 212 319 259 385 91 129 136 192 152 213 10 14 60 81 111
150 149 201 475 611 554 696 5 7 30 36 55 65 64 76 192 221 210 239 8 8 35 38
59 65 269 304 849 874 1146 1126 22 19 42 37 45 40 4 5 263 224 310 262 8 7
71 57 140 112 68 55 131 106 140 112 76 63 400 303 549 408 513 360 969 641
1546 950 99 53 533 271 605 303 25 11 81 37 125 57 269 124 611 266 880 367
88 32 169 63 180 68 22 10 188 67 370 128 189 64 481 154 539 167 10 2 33 9
51 15 18 6 41 12 51 15 10 2 78 20 149 40 135 38 153 43 195 51 14 3 50 12 80
20 30 9 66 18 80 21 14 2 41 8 60 13 19 5 46 11 60 14 14 3 57 13 95 22 39 8
81 18 95 20 14 3 31 7 39 10 8 2 30 7 50 10 20 3 52 9 71 14 19 5 46 11 60 13
40 7 205 39 270 52 40 7 81 14 130 21 25 3 47 8 50 9 3 2 26 6 50 10 25 3 86
12 135 20 88 14 112 17 205 30 25 3 56 8 70 10 14 2 52 7 85 11 33 3 69 8 80
10 11 2 49 7 85 10 36 2 76 7 90 9 14 3 56 7 95 10 38 3 84 8 100 10 17 2 68
7 115 10 47 3 99 8 115 10 17 2 80 7 140 11 61 3 120 7 132 9 12 2 109 7 215
10 106 4 195 9 197 11 5 4 1070 -5 1136 -10z"/>
<path d="M22407 34504 c-1 -1 -101 -5 -222 -9 -121 -4 -238 -8 -260 -10 -157
-11 -285 -22 -355 -30 -19 -2 -62 -7 -95 -10 -82 -8 -128 -14 -210 -26 -38 -5
-83 -11 -100 -14 -92 -12 -182 -26 -195 -30 -8 -2 -35 -7 -60 -10 -25 -3 -52
-8 -60 -10 -8 -3 -51 -11 -95 -19 -44 -8 -91 -17 -105 -20 -14 -3 -50 -11 -80
-17 -234 -46 -685 -168 -960 -259 -258 -86 -579 -205 -697 -260 -24 -11 -45
-20 -47 -20 -3 0 -81 -34 -173 -76 -549 -249 -1068 -544 -1545 -880 -121 -86
-411 -302 -458 -342 -14 -12 -70 -58 -125 -103 -103 -84 -287 -244 -385 -334
-98 -89 -513 -507 -596 -600 -363 -405 -638 -759 -915 -1180 -92 -139 -269
-429 -309 -507 -14 -27 -28 -48 -32 -48 -5 0 -8 -4 -8 -10 0 -5 -23 -52 -51
-102 -66 -118 -221 -428 -289 -578 -94 -208 -100 -221 -100 -225 0 -3 -9 -24
-19 -48 -63 -135 -280 -726 -295 -802 -1 -5 -15 -50 -30 -100 -56 -178 -164
-589 -181 -688 -3 -15 -12 -60 -21 -100 -8 -39 -18 -83 -20 -97 -2 -14 -11
-59 -19 -100 -17 -85 -25 -133 -30 -173 -2 -16 -6 -40 -9 -55 -3 -15 -8 -43
-11 -62 -2 -19 -9 -66 -15 -105 -6 -38 -12 -88 -15 -110 -3 -22 -8 -56 -10
-75 -3 -19 -7 -60 -10 -90 -3 -30 -7 -71 -10 -90 -9 -76 -19 -201 -30 -370
-12 -181 -21 -678 -16 -881 l1 -36 2188 4 c1203 2 5412 5 9354 6 3942 2 7170
6 7174 10 13 13 6 611 -11 892 -5 90 -14 209 -19 260 -2 22 -7 74 -11 115 -3
41 -8 86 -10 100 -2 14 -7 50 -10 80 -4 30 -8 66 -10 80 -2 14 -9 59 -14 100
-50 355 -93 566 -217 1073 -2 9 -6 25 -8 35 -39 155 -180 594 -262 815 -139
374 -340 820 -514 1142 -93 172 -114 211 -137 247 -13 21 -23 39 -23 41 0 2
-31 55 -70 118 -38 63 -81 134 -96 159 -35 58 -236 363 -243 370 -3 3 -26 34
-51 70 -58 86 -238 326 -314 420 -77 96 -239 293 -246 300 -3 3 -37 41 -75 85
-39 44 -95 107 -125 140 -90 99 -519 525 -604 600 -43 39 -88 79 -100 90 -46
44 -228 197 -346 290 -69 55 -127 102 -130 105 -10 12 -210 158 -330 242 -69
48 -129 92 -135 96 -35 28 -105 72 -114 72 -6 0 -11 3 -11 8 0 4 -30 25 -66
47 -36 22 -95 59 -131 83 -36 23 -95 59 -130 80 -36 20 -77 45 -91 54 -15 10
-33 21 -41 24 -7 4 -50 28 -95 54 -152 87 -505 270 -636 328 -25 11 -85 39
-133 61 -49 23 -90 41 -92 41 -3 0 -28 11 -57 24 -150 68 -483 194 -733 277
-144 48 -472 146 -545 164 -8 2 -98 24 -200 49 -160 38 -306 71 -415 91 -56
10 -370 63 -410 69 -93 13 -157 22 -240 32 -33 3 -68 8 -77 10 -9 1 -49 5 -90
9 -40 3 -89 8 -108 10 -31 3 -143 12 -265 21 -98 6 -654 22 -658 18z m473
-678 c85 -4 173 -9 195 -11 22 -2 81 -7 130 -10 50 -3 99 -7 110 -9 11 -2 56
-7 99 -11 43 -4 86 -8 95 -10 9 -1 43 -6 76 -9 33 -4 71 -9 85 -11 14 -2 43
-6 65 -9 22 -4 51 -8 65 -11 14 -2 43 -7 65 -10 22 -3 47 -7 55 -10 8 -2 36
-6 62 -10 87 -10 324 -61 618 -130 407 -97 1004 -306 1445 -505 231 -105 624
-308 790 -409 33 -20 69 -41 80 -48 11 -7 27 -15 35 -19 56 -27 611 -395 640
-424 3 -3 32 -25 65 -49 64 -47 327 -251 335 -261 3 -3 48 -41 100 -85 52 -44
100 -84 106 -90 6 -5 47 -41 90 -80 241 -213 566 -545 789 -805 59 -69 117
-136 129 -150 12 -14 79 -99 150 -190 70 -91 133 -172 139 -180 82 -103 332
-478 456 -683 555 -918 948 -1970 1121 -2997 11 -69 23 -136 25 -150 3 -14 7
-50 10 -80 4 -30 8 -62 10 -70 7 -25 42 -339 50 -440 8 -103 18 -279 19 -330
l1 -55 -5135 -2 c-2824 -1 -6732 -3 -8685 -5 l-3550 -3 1 70 c2 84 14 290 19
325 3 14 7 61 10 105 3 44 8 87 10 95 2 8 7 47 10 85 3 39 8 82 11 97 3 15 7
42 9 60 8 63 17 133 21 153 2 10 6 37 10 60 5 34 17 100 60 335 3 14 9 41 14
60 5 19 12 51 15 70 4 27 78 327 110 450 81 307 279 860 420 1175 7 17 23 53
35 80 54 119 214 441 279 559 39 72 71 131 71 132 0 7 207 345 280 459 237
366 571 804 820 1074 14 15 69 75 122 132 355 386 825 806 1223 1094 61 44
112 82 115 85 26 27 483 325 615 400 17 9 68 40 115 67 133 78 190 109 405
218 694 351 1406 600 2165 755 85 18 169 34 185 36 17 3 53 9 80 14 76 14 103
19 190 30 44 6 91 13 105 15 14 2 45 6 70 10 25 3 61 7 80 10 19 3 62 7 95 11
33 3 74 7 90 9 30 3 143 13 245 20 30 2 127 7 215 11 88 3 161 7 162 8 5 4
451 -2 583 -8z"/>
<path d="M14945 23495 c-5 -2 -42 -13 -81 -24 -292 -85 -435 -441 -286 -714
35 -66 134 -165 197 -199 292 -155 646 -2 729 317 17 67 15 207 -4 265 -72
215 -243 347 -460 355 -47 2 -89 2 -95 0z"/>
<path d="M16262 23291 c-162 -56 -238 -267 -159 -441 32 -70 111 -137 187
-159 8 -2 3226 -5 7151 -6 5432 -1 7147 1 7182 10 158 40 243 209 202 400 -18
83 -105 175 -189 200 -44 13 -919 15 -7185 15 -6906 -1 -7138 -1 -7189 -19z"/>
<path d="M14995 21433 c-170 -15 -316 -100 -403 -238 -27 -43 -61 -132 -69
-180 -5 -34 -5 -143 0 -165 2 -8 7 -31 11 -50 14 -65 70 -162 126 -219 167
-169 440 -200 630 -72 94 63 169 160 205 266 34 100 26 254 -19 360 -51 120
-170 228 -296 270 -54 17 -144 31 -185 28z"/>
<path d="M16315 21242 c-104 -19 -192 -98 -225 -203 -56 -174 14 -337 175
-405 37 -16 514 -17 7180 -17 5585 0 7150 3 7185 13 115 31 198 143 205 278 8
158 -74 285 -209 324 -31 9 -1720 12 -7166 12 -3919 1 -7134 0 -7145 -2z"/>
<path d="M14910 19363 c-58 -8 -119 -28 -180 -59 -249 -129 -339 -442 -198
-692 39 -69 125 -152 196 -190 194 -103 437 -67 589 86 178 181 198 459 48
657 -54 70 -93 102 -180 145 -85 43 -194 63 -275 53z"/>
<path d="M16268 19174 c-2 -1 -15 -5 -30 -8 -121 -22 -218 -152 -219 -297 -2
-131 56 -233 166 -292 l40 -22 7175 0 7175 0 41 22 c67 36 98 68 134 138 30
58 33 75 33 143 -1 137 -64 245 -173 296 l-45 21 -7147 1 c-3931 1 -7149 0
-7150 -2z"/>
<path d="M14028 17485 c-2 -1 -28 -5 -58 -9 -30 -3 -72 -11 -94 -17 -21 -6
-46 -12 -56 -14 -10 -2 -51 -17 -92 -34 -199 -83 -385 -255 -481 -447 -34 -68
-91 -214 -82 -214 2 0 0 -14 -5 -32 -5 -17 -13 -63 -16 -102 -9 -97 -9 -2594
0 -2680 22 -205 122 -413 275 -566 128 -129 279 -215 456 -261 l90 -24 8508
-1 c7010 -1 8522 2 8585 12 424 74 747 414 798 841 4 32 7 645 7 1363 0 1182
-2 1313 -17 1394 -71 374 -340 662 -714 764 l-97 26 -8502 2 c-4676 1 -8503 1
-8505 -1z m17001 -700 c68 -38 125 -103 147 -168 17 -49 18 -138 18 -1342 l-1
-1290 -25 -55 c-29 -64 -81 -118 -146 -151 l-47 -24 -8475 0 -8475 0 -47 24
c-62 30 -112 82 -146 151 l-27 55 0 1275 c-1 920 2 1289 10 1326 22 96 86 170
181 209 l59 25 8460 -3 8460 -2 54 -30z"/>
</g>
</svg>
